<svg width="756" height="720" xmlns="http://www.w3.org/2000/svg" xmlns:xlink="http://www.w3.org/1999/xlink" overflow="hidden"><defs><clipPath id="clip0"><rect x="0" y="0" width="756" height="720"/></clipPath></defs><g clip-path="url(#clip0)"><rect x="0" y="0" width="756" height="719.841" fill="#FFFFFF"/><rect x="63.5" y="282.438" width="159" height="158.965" stroke="#000000" stroke-width="1.33363" stroke-miterlimit="8" stroke-dasharray="4.00088 1.33363" fill="none"/><path d="M143.5 282.438 143.5 441.178" stroke="#0D0D0D" stroke-width="1.33363" stroke-miterlimit="8" stroke-dasharray="4.00088 1.33363" fill="none" fill-rule="evenodd"/><path d="M0 0 158.74 0.000104987" stroke="#0D0D0D" stroke-width="1.33333" stroke-miterlimit="8" stroke-dasharray="4 1.33333" fill="none" fill-rule="evenodd" transform="matrix(-1.00022 0 0 1 222.275 360.42)"/><rect x="395.5" y="282.438" width="158" height="158.965" stroke="#000000" stroke-width="1.33363" stroke-miterlimit="8" stroke-dasharray="4.00088 1.33363" fill="none"/><path d="M474.5 282.438 474.5 441.178" stroke="#0D0D0D" stroke-width="1.33363" stroke-miterlimit="8" stroke-dasharray="4.00088 1.33363" fill="none" fill-rule="evenodd"/><path d="M0 0 158.74 0.000104987" stroke="#0D0D0D" stroke-width="1.33333" stroke-miterlimit="8" stroke-dasharray="4 1.33333" fill="none" fill-rule="evenodd" transform="matrix(-1.00022 0 0 1 554.275 361.42)"/><rect x="395.5" y="64.4858" width="158" height="157.965" stroke="#000000" stroke-width="1.33363" stroke-miterlimit="8" stroke-dasharray="4.00088 1.33363" fill="none"/><path d="M474.5 64.4858 474.5 223.226" stroke="#0D0D0D" stroke-width="1.33363" stroke-miterlimit="8" stroke-dasharray="4.00088 1.33363" fill="none" fill-rule="evenodd"/><path d="M0 0 158.74 0.000104987" stroke="#0D0D0D" stroke-width="1.33333" stroke-miterlimit="8" stroke-dasharray="4 1.33333" fill="none" fill-rule="evenodd" transform="matrix(-1.00022 0 0 1 554.275 142.469)"/><rect x="395.5" y="501.389" width="158" height="158.965" stroke="#000000" stroke-width="1.33363" stroke-miterlimit="8" stroke-dasharray="4.00088 1.33363" fill="none"/><path d="M474.5 501.389 474.5 660.13" stroke="#0D0D0D" stroke-width="1.33363" stroke-miterlimit="8" stroke-dasharray="4.00088 1.33363" fill="none" fill-rule="evenodd"/><path d="M0 0 158.74 0.000104987" stroke="#0D0D0D" stroke-width="1.33333" stroke-miterlimit="8" stroke-dasharray="4 1.33333" fill="none" fill-rule="evenodd" transform="matrix(-1.00022 0 0 1 554.275 579.372)"/><rect x="105.5" y="14.4968" width="80" height="38.9914" stroke="#000000" stroke-width="1.00022" stroke-linejoin="round" stroke-miterlimit="10" fill="none"/><text font-family="Calibri,Calibri_MSFontService,sans-serif" font-weight="400" font-size="24" transform="matrix(1 0 0 0.99978 114.539 41)">T = j<tspan font-size="24" x="40.3422" y="0">-</tspan><tspan font-size="24" x="47.6772" y="0">1</tspan></text><rect x="444.5" y="14.4968" width="60" height="38.9914" stroke="#000000" stroke-width="1.00022" stroke-linejoin="round" stroke-miterlimit="10" fill="none"/><text font-family="Calibri,Calibri_MSFontService,sans-serif" font-weight="400" font-size="24" transform="matrix(1 0 0 0.99978 453.529 41)">T = j</text><path d="M132.5 360.421C132.5 354.347 137.425 349.423 143.5 349.423 149.575 349.423 154.5 354.347 154.5 360.421 154.5 366.494 149.575 371.418 143.5 371.418 137.425 371.418 132.5 366.494 132.5 360.421Z" stroke="#000000" stroke-width="1.33363" stroke-miterlimit="8" fill-rule="evenodd"/><path d="M463.5 360.421C463.5 354.347 468.425 349.423 474.5 349.423 480.575 349.423 485.5 354.347 485.5 360.421 485.5 366.494 480.575 371.418 474.5 371.418 468.425 371.418 463.5 366.494 463.5 360.421Z" stroke="#000000" stroke-width="1.33363" stroke-miterlimit="8" fill="#FF0000" fill-rule="evenodd"/><path d="M384.5 361.42C384.5 355.346 389.425 350.423 395.5 350.423 401.575 350.423 406.5 355.346 406.5 361.42 406.5 367.494 401.575 372.418 395.5 372.418 389.425 372.418 384.5 367.494 384.5 361.42Z" stroke="#000000" stroke-width="1.33363" stroke-miterlimit="8" fill-rule="evenodd"/><path d="M463.5 283.437C463.5 277.364 468.425 272.44 474.5 272.44 480.575 272.44 485.5 277.364 485.5 283.437 485.5 289.511 480.575 294.435 474.5 294.435 468.425 294.435 463.5 289.511 463.5 283.437Z" stroke="#000000" stroke-width="1.33363" stroke-miterlimit="8" fill-rule="evenodd"/><path d="M542.5 360.92C542.5 355.123 547.425 350.423 553.5 350.423 559.575 350.423 564.5 355.123 564.5 360.92 564.5 366.718 559.575 371.418 553.5 371.418 547.425 371.418 542.5 366.718 542.5 360.92Z" stroke="#000000" stroke-width="1.33363" stroke-miterlimit="8" fill-rule="evenodd"/><path d="M463.5 441.902C463.5 436.105 468.425 431.405 474.5 431.405 480.575 431.405 485.5 436.105 485.5 441.902 485.5 447.7 480.575 452.4 474.5 452.4 468.425 452.4 463.5 447.7 463.5 441.902Z" stroke="#000000" stroke-width="1.33363" stroke-miterlimit="8" fill-rule="evenodd"/><path d="M463.5 580.372C463.5 574.298 468.425 569.375 474.5 569.375 480.575 569.375 485.5 574.298 485.5 580.372 485.5 586.446 480.575 591.37 474.5 591.37 468.425 591.37 463.5 586.446 463.5 580.372Z" stroke="#000000" stroke-width="1.33363" stroke-miterlimit="8" fill-rule="evenodd"/><path d="M463.5 143.468C463.5 137.395 468.425 132.471 474.5 132.471 480.575 132.471 485.5 137.395 485.5 143.468 485.5 149.542 480.575 154.466 474.5 154.466 468.425 154.466 463.5 149.542 463.5 143.468Z" stroke="#000000" stroke-width="1.33363" stroke-miterlimit="8" fill-rule="evenodd"/><text font-family="Calibri,Calibri_MSFontService,sans-serif" font-weight="400" font-size="24" transform="matrix(1 0 0 0.99978 608.341 149)">Z=z+1<tspan font-size="24" x="12.2043" y="218.048">Z=z</tspan><tspan font-size="24" x="0" y="437.096">Z=z</tspan><tspan font-size="24" x="32.6739" y="437.096">-</tspan><tspan font-size="24" x="40.0089" y="437.096">1</tspan><tspan font-size="16" x="-122.353" y="15.0033">i,k,z+1</tspan><tspan font-size="16" x="-453.89" y="233.051">i,k,z</tspan><tspan font-size="16" x="-123.073" y="230.051">i,k,z</tspan><tspan font-size="16" x="-44.9781" y="230.051">i+1,k,z</tspan><tspan font-size="16" x="-202.422" y="230.051">i</tspan><tspan font-size="16" x="-198.754" y="230.051">-</tspan><tspan font-size="16" x="-193.92" y="230.051">1,k,z</tspan><tspan font-size="16" x="-120.273" y="153.034">i,k+1,z</tspan><tspan font-size="16" x="-122.352" y="311.069">i,k</tspan><tspan font-size="16" x="-107.349" y="311.069">-</tspan><tspan font-size="16" x="-102.515" y="311.069">1,z</tspan><tspan font-size="16" x="-120.273" y="450.099">i,k,z</tspan><tspan font-size="16" x="-94.9341" y="450.099">-</tspan><tspan font-size="16" x="-90.0997" y="450.099">1</tspan></text><path d="M265.5 34.1591 347.075 34.1592 347.075 34.8258 265.5 34.8257ZM345.742 30.4925 353.743 34.4925 345.742 38.4925Z"/></g></svg>